<?xml version="1.0" standalone="no"?>
<!DOCTYPE svg PUBLIC "-//W3C//DTD SVG 20010904//EN"
 "http://www.w3.org/TR/2001/REC-SVG-20010904/DTD/svg10.dtd">
<svg version="1.0" xmlns="http://www.w3.org/2000/svg"
 width="512.000000pt" height="311.000000pt" viewBox="0 0 512.000000 311.000000"
 preserveAspectRatio="xMidYMid meet">

<g transform="translate(0.000000,311.000000) scale(0.100000,-0.100000)"
fill="#000000" stroke="none">
<path d="M2100 2808 l0 -303 102 -102 103 -103 502 0 503 0 0 302 0 303 -102
102 -103 103 -502 0 -503 0 0 -302z m1100 197 l95 -95 -495 0 -495 0 -95 93
-95 92 93 -95 92 -95 0 -295 0 -295 -95 95 -95 95 0 291 c0 160 3 294 7 297 3
4 227 7 497 7 l491 0 95 -95z m100 -400 l0 -295 -495 0 -495 0 0 295 0 295
495 0 495 0 0 -295z"/>
<path d="M2427 2643 c-3 -5 8 -8 23 -8 15 0 26 3 23 8 -2 4 -13 7 -23 7 -10 0
-21 -3 -23 -7z"/>
<path d="M2651 2603 c1 -27 4 -38 6 -25 2 12 10 22 17 22 8 0 21 -10 30 -22
l17 -23 -11 23 c-6 12 -9 26 -6 31 3 4 -6 6 -19 3 -19 -3 -25 0 -25 13 0 13 6
16 25 13 13 -3 22 -1 19 3 -3 5 -16 9 -30 9 -22 0 -24 -3 -23 -47z"/>
<path d="M2928 2640 c-5 -17 3 -80 11 -80 7 0 6 79 -2 86 -3 3 -7 0 -9 -6z"/>
<path d="M3017 2643 c-11 -11 -8 -20 7 -20 8 0 12 6 9 14 -6 15 -7 15 -16 6z"/>
<path d="M2512 2603 c-2 -35 13 -52 31 -34 9 9 8 11 -5 6 -13 -5 -17 0 -21 27
l-4 33 -1 -32z"/>
<path d="M2571 2593 c2 -35 2 -35 6 -8 3 16 10 33 16 37 8 5 6 8 -5 8 -14 0
-18 -8 -17 -37z"/>
<path d="M2753 2624 c24 -8 22 -28 -3 -21 -12 3 -20 0 -20 -8 0 -8 9 -11 25
-7 31 5 30 36 0 39 -16 1 -16 1 -2 -3z"/>
<path d="M2806 2621 c-3 -5 3 -7 14 -4 11 3 20 1 20 -5 0 -5 -9 -12 -20 -15
-30 -8 -26 -37 5 -35 22 2 26 7 23 33 -3 30 -30 47 -42 26z m29 -41 c-3 -5
-10 -10 -16 -10 -5 0 -9 5 -9 10 0 6 7 10 16 10 8 0 12 -4 9 -10z"/>
<path d="M2874 2616 c-9 -23 0 -51 16 -52 9 0 10 1 3 3 -20 7 -16 51 5 56 16
4 16 5 -1 6 -10 0 -20 -5 -23 -13z"/>
<path d="M3071 2580 c0 -25 3 -38 7 -30 4 8 13 15 21 15 8 0 16 7 18 15 4 13
3 13 -6 0 -8 -11 -13 -12 -22 -3 -16 16 -3 47 17 39 8 -3 12 -2 9 3 -3 6 -14
9 -25 8 -17 -1 -20 -8 -19 -47z"/>
<path d="M3142 2585 c-1 -27 2 -45 6 -39 4 6 15 13 25 17 21 8 20 59 -1 63 -7
1 -8 0 -2 -3 16 -7 12 -53 -4 -53 -9 0 -16 13 -19 33 -3 23 -4 18 -5 -18z"/>
<path d="M2411 2604 c0 -11 3 -14 6 -6 3 7 2 16 -1 19 -3 4 -6 -2 -5 -13z"/>
<path d="M2481 2604 c0 -11 3 -14 6 -6 3 7 2 16 -1 19 -3 4 -6 -2 -5 -13z"/>
<path d="M3000 2599 c0 -5 11 -9 25 -9 14 0 25 2 25 4 0 2 -11 6 -25 8 -14 3
-25 1 -25 -3z"/>
<path d="M2427 2568 c2 -5 13 -8 23 -8 10 0 21 3 23 8 3 4 -8 7 -23 7 -15 0
-26 -3 -23 -7z"/>
<path d="M2755 2570 c-16 -7 -17 -9 -3 -9 9 -1 20 4 23 9 7 11 7 11 -20 0z"/>
<path d="M525 3030 c17 -5 47 -12 68 -15 20 -3 67 -21 102 -40 56 -29 70 -32
97 -24 127 36 278 -27 307 -128 10 -37 10 -37 6 -4 -12 79 -97 139 -208 148
-34 3 -79 1 -100 -5 -35 -10 -44 -8 -100 23 -57 31 -84 39 -172 50 l-30 4 30
-9z"/>
<path d="M453 3023 c9 -2 23 -2 30 0 6 3 -1 5 -18 5 -16 0 -22 -2 -12 -5z"/>
<path d="M385 3001 c-16 -10 -39 -29 -50 -42 -18 -22 -17 -21 10 2 17 15 44
34 60 42 17 9 26 16 20 17 -5 0 -23 -8 -40 -19z"/>
<path d="M300 2920 c-8 -4 -41 -14 -73 -20 -33 -7 -68 -21 -80 -33 -13 -12
-15 -16 -6 -9 22 17 105 42 140 42 15 0 29 7 33 15 6 17 6 17 -14 5z"/>
<path d="M1926 2825 c5 -13 -41 -15 -362 -18 l-369 -2 369 -3 c322 -2 367 -4
362 -17 -7 -19 1 -18 42 3 l33 18 -36 17 c-44 21 -46 21 -39 2z"/>
<path d="M90 2811 c-19 -37 -11 -72 24 -107 19 -19 42 -34 52 -34 14 0 12 -6
-14 -33 -46 -47 -44 -88 6 -137 38 -39 94 -61 147 -59 20 1 12 4 -23 10 -96
16 -152 62 -152 125 0 25 8 39 36 62 l36 30 -36 12 c-62 20 -92 80 -66 131 6
10 8 19 6 19 -3 0 -10 -9 -16 -19z"/>
<path d="M536 2734 c-3 -9 -4 -19 -1 -22 3 -3 5 1 5 9 0 11 2 11 10 -1 5 -8
10 -10 10 -5 0 6 -4 16 -9 23 -6 11 -10 10 -15 -4z"/>
<path d="M1066 2726 c-12 -19 -13 -27 -3 -32 6 -4 23 -14 37 -22 l25 -14 -25
21 c-14 11 -28 21 -33 21 -4 0 0 11 9 25 9 14 14 25 11 25 -2 0 -12 -11 -21
-24z"/>
<path d="M501 2714 c0 -11 3 -14 6 -6 3 7 2 16 -1 19 -3 4 -6 -2 -5 -13z"/>
<path d="M617 2724 c-4 -4 -7 -18 -7 -31 0 -26 26 -41 42 -25 8 8 5 9 -11 5
-12 -3 -21 -1 -21 6 0 6 9 11 21 11 14 0 19 5 17 17 -3 19 -29 29 -41 17z m33
-14 c0 -5 -7 -10 -15 -10 -8 0 -15 5 -15 10 0 6 7 10 15 10 8 0 15 -4 15 -10z"/>
<path d="M686 2722 c-2 -4 4 -8 14 -8 10 0 16 4 14 8 -3 4 -9 8 -14 8 -5 0
-11 -4 -14 -8z"/>
<path d="M515 2680 c-3 -5 -1 -10 4 -10 6 0 11 5 11 10 0 6 -2 10 -4 10 -3 0
-8 -4 -11 -10z"/>
<path d="M690 2666 c7 -7 13 -7 20 0 6 6 3 10 -10 10 -13 0 -16 -4 -10 -10z"/>
<path d="M1134 2630 c19 -29 21 -80 4 -102 -7 -8 -24 -22 -38 -32 -13 -9 -19
-16 -11 -16 7 0 26 13 42 29 36 36 39 87 8 122 l-21 24 16 -25z"/>
<path d="M1000 2473 c-21 -3 -49 -18 -71 -38 -95 -85 -282 -107 -444 -51 -12
5 -11 2 5 -7 14 -8 53 -21 88 -27 125 -25 277 8 352 76 23 21 49 34 66 35 16
1 40 5 54 9 28 9 11 10 -50 3z"/>
<path d="M350 2459 c-12 -9 -11 -10 7 -6 14 3 29 -3 45 -20 13 -14 32 -30 43
-35 11 -6 0 8 -25 30 -50 46 -49 46 -70 31z"/>
<path d="M2979 2150 c-4 -33 -6 -35 -49 -41 l-45 -6 41 -1 c22 -1 45 3 51 9 8
8 17 8 32 -1 12 -6 34 -9 49 -7 26 4 26 4 -4 6 -38 1 -62 19 -67 51 -3 21 -4
19 -8 -10z"/>
<path d="M928 2103 c-25 -3 -44 -13 -58 -30 -21 -27 -27 -73 -10 -73 6 0 10
15 10 33 0 18 5 38 12 45 9 9 246 12 1005 12 655 0 993 3 993 10 0 10 -1863
12 -1952 3z"/>
<path d="M3090 2100 c0 -7 317 -10 993 -10 759 0 996 -3 1005 -12 7 -7 12 -27
12 -45 0 -18 5 -33 10 -33 19 0 10 49 -14 77 l-24 28 -991 3 c-677 2 -991 -1
-991 -8z"/>
<path d="M3800 1855 l0 -155 -40 0 c-37 0 -55 -13 -28 -22 10 -4 -549 -338
-565 -338 -3 0 -7 8 -9 17 -2 13 -9 9 -25 -17 l-23 -35 0 203 0 202 -505 0
-505 0 0 -250 0 -250 -161 0 c-139 0 -160 2 -155 15 7 18 -2 18 -34 0 -14 -8
-28 -14 -32 -15 -5 0 -8 90 -8 200 l0 200 -405 0 -405 0 0 -405 0 -405 405 0
405 0 0 200 c0 110 3 200 8 200 4 -1 18 -7 32 -15 32 -18 41 -18 34 0 -5 13
16 15 155 15 l161 0 0 -250 0 -250 505 0 505 0 1 298 c1 163 3 288 6 277 9
-42 13 -48 26 -37 9 8 84 -95 312 -428 165 -241 301 -437 303 -436 1 2 -130
198 -293 436 -162 237 -295 436 -295 441 0 5 6 9 14 9 12 0 512 -210 538 -226
5 -3 4 -12 -4 -21 -11 -13 -7 -15 35 -12 l47 4 0 -152 0 -153 605 0 605 0 0
305 0 305 -605 0 -605 0 0 -147 0 -147 -30 29 c-25 24 -30 26 -30 11 0 -11 -5
-16 -12 -13 -53 21 -532 228 -540 233 -5 3 -5 11 2 19 8 10 7 16 -5 23 -13 7
44 45 267 175 157 92 287 167 291 167 3 0 7 -8 9 -17 3 -14 9 -10 24 17 l19
35 3 -147 3 -148 604 0 605 0 0 305 0 305 -605 0 -605 0 0 -155z m1200 -150
l0 -295 -595 0 -595 0 0 295 0 295 595 0 595 0 0 -295z m-1900 -500 l0 -495
-495 0 -495 0 0 245 c0 172 3 245 11 245 6 0 9 -7 5 -15 -7 -19 -5 -19 39 2
l36 17 -33 18 c-41 21 -49 22 -42 3 4 -8 1 -15 -5 -15 -8 0 -11 73 -11 245 l0
245 495 0 495 0 0 -495z m-1400 0 l0 -395 -395 0 -395 0 0 395 0 395 395 0
395 0 0 -395z m3300 -200 l0 -295 -595 0 -595 0 0 295 0 295 595 0 595 0 0
-295z"/>
<path d="M4070 1736 c-15 -20 -9 -56 12 -70 14 -8 21 -6 35 9 16 17 17 18 1 6
-25 -18 -48 -7 -48 24 0 31 24 42 48 24 15 -13 16 -12 3 4 -16 21 -35 22 -51
3z"/>
<path d="M4648 1740 c-5 -17 3 -80 11 -80 7 0 6 79 -2 86 -3 3 -7 0 -9 -6z"/>
<path d="M4729 1733 c-8 -10 -9 -14 -2 -10 8 5 13 -5 16 -30 3 -35 4 -34 5 10
2 52 1 55 -19 30z"/>
<path d="M4154 1716 c-9 -23 0 -51 17 -54 19 -4 32 23 24 49 -7 22 -33 25 -41
5z m31 -21 c0 -10 -6 -20 -12 -22 -8 -3 -13 5 -13 22 0 17 5 25 13 23 6 -3 12
-13 12 -23z"/>
<path d="M4211 1691 c1 -35 2 -35 8 -7 9 42 29 44 34 4 l5 -33 -2 35 c-1 29
-5 35 -23 36 -20 1 -23 -3 -22 -35z"/>
<path d="M4275 1720 c3 -5 8 -10 11 -10 2 0 4 5 4 10 0 6 -5 10 -11 10 -5 0
-7 -4 -4 -10z"/>
<path d="M4311 1680 c0 -25 3 -38 7 -30 4 8 13 15 21 15 8 0 16 7 18 15 4 13
3 13 -6 0 -8 -11 -13 -12 -22 -3 -16 16 -3 47 17 39 8 -3 12 -2 9 3 -3 6 -14
9 -25 8 -17 -1 -20 -8 -19 -47z"/>
<path d="M4384 1716 c-10 -26 0 -51 21 -51 16 0 20 7 20 30 0 33 -30 49 -41
21z m36 -21 c0 -16 -6 -25 -15 -25 -9 0 -15 9 -15 25 0 16 6 25 15 25 9 0 15
-9 15 -25z"/>
<path d="M4452 1693 l1 -38 4 33 c3 24 8 32 19 28 8 -3 14 -1 14 4 0 6 -9 10
-20 10 -17 0 -20 -6 -18 -37z"/>
<path d="M4533 1724 c24 -8 22 -28 -3 -21 -12 3 -20 0 -20 -8 0 -8 9 -11 25
-7 31 5 30 36 0 39 -16 1 -16 1 -2 -3z"/>
<path d="M4582 1693 c1 -37 1 -37 5 -5 3 18 10 32 18 32 8 0 16 -14 18 -32 l5
-33 -2 35 c-1 28 -5 36 -23 38 -21 3 -23 -1 -21 -35z"/>
<path d="M4535 1670 c-16 -7 -17 -9 -3 -9 9 -1 20 4 23 9 7 11 7 11 -20 0z"/>
<path d="M2441 1203 c1 -27 4 -38 6 -25 2 12 10 22 17 22 8 0 21 -10 30 -22
l17 -23 -11 23 c-6 12 -9 26 -6 31 3 4 -6 6 -19 3 -19 -3 -25 0 -25 13 0 13 6
16 25 13 14 -3 25 -1 25 3 0 5 -13 9 -30 9 -29 0 -30 -1 -29 -47z"/>
<path d="M2658 1240 c-5 -17 3 -80 11 -80 7 0 6 79 -2 86 -3 3 -7 0 -9 -6z"/>
<path d="M2534 1216 c-9 -23 0 -51 17 -54 19 -4 32 23 24 49 -7 22 -33 25 -41
5z m31 -21 c0 -10 -6 -20 -12 -22 -8 -3 -13 5 -13 22 0 17 5 25 13 23 6 -3 12
-13 12 -23z"/>
<path d="M2594 1201 c0 -21 7 -36 16 -38 10 -3 11 -2 3 4 -6 4 -13 22 -16 38
-4 27 -5 27 -3 -4z"/>
<path d="M2633 1195 c0 -22 2 -30 4 -17 2 12 2 30 0 40 -3 9 -5 -1 -4 -23z"/>
<path d="M2713 1224 c24 -8 22 -28 -3 -21 -12 3 -20 0 -20 -8 0 -8 9 -11 25
-7 31 5 30 36 0 39 -16 1 -16 1 -2 -3z"/>
<path d="M2761 1193 c2 -35 2 -35 6 -8 3 16 10 33 16 37 8 5 6 8 -5 8 -14 0
-18 -8 -17 -37z"/>
<path d="M2715 1170 c-16 -7 -17 -9 -3 -9 9 -1 20 4 23 9 7 11 7 11 -20 0z"/>
<path d="M1240 1240 c0 -5 -6 -10 -14 -10 -18 0 -29 -31 -20 -54 3 -9 15 -16
25 -16 16 0 19 8 19 45 0 25 -2 45 -5 45 -3 0 -5 -4 -5 -10z m0 -45 c0 -26
-14 -33 -25 -15 -9 14 1 40 15 40 5 0 10 -11 10 -25z"/>
<path d="M1142 1193 l1 -38 4 33 c3 24 8 32 19 28 8 -3 14 -1 14 4 0 6 -9 10
-20 10 -17 0 -20 -6 -18 -37z"/>
<path d="M1277 1224 c-4 -4 -7 -18 -7 -31 0 -26 26 -41 42 -25 8 8 5 9 -11 5
-12 -3 -21 -1 -21 6 0 6 9 11 21 11 14 0 19 5 17 17 -3 19 -29 29 -41 17z m33
-14 c0 -5 -7 -10 -15 -10 -8 0 -15 5 -15 10 0 6 7 10 15 10 8 0 15 -4 15 -10z"/>
<path d="M1346 1205 c19 -29 21 -30 21 -11 0 7 -9 19 -19 25 -18 11 -18 11 -2
-14z"/>
<path d="M1430 1188 c-3 -26 -1 -43 3 -39 5 5 7 26 5 47 l-3 39 -5 -47z"/>
<path d="M1460 1226 c0 -2 9 -6 20 -9 11 -3 18 -1 14 4 -5 9 -34 13 -34 5z"/>
<path d="M1480 1193 c15 -7 12 -21 -5 -26 -11 -4 -10 -4 2 -3 21 2 25 28 5 32
-7 1 -8 0 -2 -3z"/>
<path d="M4070 1036 c-15 -20 -9 -56 12 -70 14 -8 21 -6 35 9 16 17 17 18 1 6
-25 -18 -48 -7 -48 24 0 31 24 42 48 24 15 -13 16 -12 3 4 -16 21 -35 22 -51
3z"/>
<path d="M4648 1040 c-5 -17 3 -80 11 -80 7 0 6 79 -2 86 -3 3 -7 0 -9 -6z"/>
<path d="M4716 1041 c-4 -5 3 -7 14 -4 26 7 26 -18 0 -42 -27 -25 -25 -35 8
-34 24 2 25 2 4 6 l-24 5 22 23 c13 14 20 31 17 39 -7 17 -32 21 -41 7z"/>
<path d="M4154 1016 c-9 -23 0 -51 17 -54 19 -4 32 23 24 49 -7 22 -33 25 -41
5z m31 -21 c0 -10 -6 -20 -12 -22 -8 -3 -13 5 -13 22 0 17 5 25 13 23 6 -3 12
-13 12 -23z"/>
<path d="M4211 991 c1 -35 2 -35 8 -7 9 42 29 44 34 4 l5 -33 -2 35 c-1 29 -5
35 -23 36 -20 1 -23 -3 -22 -35z"/>
<path d="M4275 1020 c3 -5 8 -10 11 -10 2 0 4 5 4 10 0 6 -5 10 -11 10 -5 0
-7 -4 -4 -10z"/>
<path d="M4311 980 c0 -25 3 -38 7 -30 4 8 13 15 21 15 8 0 16 7 18 15 4 13 3
13 -6 0 -8 -11 -13 -12 -22 -3 -16 16 -3 47 17 39 8 -3 12 -2 9 3 -3 6 -14 9
-25 8 -17 -1 -20 -8 -19 -47z"/>
<path d="M4384 1016 c-10 -26 0 -51 21 -51 16 0 20 7 20 30 0 33 -30 49 -41
21z m36 -21 c0 -16 -6 -25 -15 -25 -9 0 -15 9 -15 25 0 16 6 25 15 25 9 0 15
-9 15 -25z"/>
<path d="M4452 993 l1 -38 4 33 c3 24 8 32 19 28 8 -3 14 -1 14 4 0 6 -9 10
-20 10 -17 0 -20 -6 -18 -37z"/>
<path d="M4533 1024 c24 -8 22 -28 -3 -21 -12 3 -20 0 -20 -8 0 -8 9 -11 25
-7 31 5 30 36 0 39 -16 1 -16 1 -2 -3z"/>
<path d="M4582 993 c1 -37 1 -37 5 -5 3 18 10 32 18 32 8 0 16 -14 18 -32 l5
-33 -2 35 c-1 28 -5 36 -23 38 -21 3 -23 -1 -21 -35z"/>
<path d="M4535 970 c-16 -7 -17 -9 -3 -9 9 -1 20 4 23 9 7 11 7 11 -20 0z"/>
<path d="M3800 494 c0 -64 -4 -113 -9 -110 -5 3 -14 -1 -21 -9 -7 -8 -19 -15
-26 -15 -25 0 -15 -16 21 -33 l35 -17 0 -155 0 -155 605 0 605 0 0 305 0 305
-605 0 -605 0 0 -116z m1200 -189 l0 -295 -595 0 -595 0 0 295 0 295 595 0
595 0 0 -295z"/>
<path d="M4060 329 c-9 -16 -9 -28 -1 -45 10 -23 44 -33 55 -15 3 4 -5 6 -18
4 -26 -5 -42 21 -30 51 7 18 39 22 47 6 3 -6 4 -5 3 2 -5 23 -44 21 -56 -3z"/>
<path d="M4638 340 c-5 -17 3 -80 11 -80 7 0 6 79 -2 86 -3 3 -7 0 -9 -6z"/>
<path d="M4144 316 c-10 -26 0 -51 21 -51 16 0 20 7 20 30 0 33 -30 49 -41 21z
m36 -21 c0 -16 -6 -25 -15 -25 -9 0 -15 9 -15 25 0 16 6 25 15 25 9 0 15 -9
15 -25z"/>
<path d="M4212 293 c1 -35 2 -35 5 -7 3 26 8 31 33 31 25 0 30 -5 33 -31 4
-28 4 -28 3 4 -1 33 -3 35 -38 38 -38 2 -38 2 -36 -35z"/>
<path d="M4310 283 c0 -27 4 -43 8 -37 4 6 14 14 22 17 12 4 11 6 -2 6 -12 1
-18 9 -18 25 0 15 7 26 18 29 13 4 11 5 -5 6 -21 1 -23 -4 -23 -46z"/>
<path d="M4376 312 c-4 -11 -4 -27 0 -36 8 -20 36 -17 41 4 4 12 3 13 -5 1
-11 -16 -32 -7 -32 14 0 21 21 30 32 14 8 -12 9 -11 5 1 -6 23 -34 24 -41 2z"/>
<path d="M4442 293 c1 -37 1 -37 5 -5 3 18 10 32 18 32 8 0 16 -14 18 -32 l5
-33 -2 35 c-1 28 -5 36 -23 38 -21 3 -23 -1 -21 -35z"/>
<path d="M4517 323 c-16 -15 -5 -33 19 -33 20 0 25 4 20 16 -3 9 -6 18 -6 20
0 7 -26 5 -33 -3z m28 -13 c3 -5 -1 -10 -9 -10 -9 0 -16 5 -16 10 0 6 4 10 9
10 6 0 13 -4 16 -10z"/>
<path d="M4571 291 c1 -35 2 -35 8 -7 9 42 29 44 34 4 l5 -33 -2 35 c-1 29 -5
35 -23 36 -20 1 -23 -3 -22 -35z"/>
<path d="M4716 305 c19 -29 21 -30 21 -11 0 7 -9 19 -19 25 -18 11 -18 11 -2
-14z"/>
<path d="M4351 294 c0 -11 3 -14 6 -6 3 7 2 16 -1 19 -3 4 -6 -2 -5 -13z"/>
<path d="M4517 268 c2 -5 10 -8 18 -8 8 0 16 3 18 8 3 4 -5 7 -18 7 -13 0 -21
-3 -18 -7z"/>
</g>
</svg>
