<?xml version="1.0" standalone="no"?>
<!DOCTYPE svg PUBLIC "-//W3C//DTD SVG 20010904//EN"
 "http://www.w3.org/TR/2001/REC-SVG-20010904/DTD/svg10.dtd">
<svg version="1.0" xmlns="http://www.w3.org/2000/svg"
 width="343.000000pt" height="94.000000pt" viewBox="0 0 343.000000 94.000000"
 preserveAspectRatio="xMidYMid meet">

<g transform="translate(0.000000,94.000000) scale(0.100000,-0.100000)"
fill="#000000" stroke="none">
<path d="M0 470 l0 -470 1718 2 1717 3 -1712 2 -1713 3 0 450 0 450 1710 0
c1513 0 1710 2 1710 15 0 13 -197 15 -1715 15 l-1715 0 0 -470z"/>
<path d="M80 460 l0 -390 825 0 825 0 0 390 0 390 -825 0 -825 0 0 -390z
m1154 136 c31 -13 76 -59 76 -77 0 -18 -22 -8 -52 21 -23 24 -38 30 -71 30
-64 -1 -97 -36 -97 -105 0 -27 8 -44 29 -66 40 -40 88 -40 134 1 19 17 40 30
46 30 22 0 10 -29 -24 -59 -31 -27 -43 -31 -91 -31 -50 0 -60 4 -89 33 -67 67
-53 176 28 216 49 25 66 26 111 7z m-830 -17 c20 -16 26 -29 26 -60 0 -38 -26
-79 -51 -79 -6 0 3 -19 20 -42 36 -48 38 -58 14 -58 -10 0 -30 20 -46 45 -23
37 -34 45 -58 45 -28 0 -29 -2 -29 -45 0 -38 -3 -45 -20 -45 -19 0 -20 7 -20
130 l0 130 69 0 c54 0 74 -4 95 -21z m281 6 c0 -5 -28 -11 -62 -13 l-63 -3 0
-39 0 -40 60 0 c47 0 60 -3 60 -15 0 -12 -13 -15 -60 -15 l-60 0 0 -45 0 -45
65 0 c51 0 65 -3 65 -15 0 -12 -16 -15 -82 -15 l-83 0 1 123 c1 67 2 126 3
130 2 12 156 4 156 -8z m256 -110 c27 -66 49 -123 49 -127 0 -22 -32 -4 -41
22 -11 29 -13 30 -75 30 -63 0 -65 -1 -75 -30 -7 -20 -18 -30 -31 -30 -11 0
-18 3 -16 8 2 4 25 63 52 130 65 159 70 159 137 -3z m649 110 c0 -11 -12 -15
-45 -15 l-45 0 0 -115 c0 -96 -3 -115 -15 -115 -12 0 -15 19 -15 115 l0 115
-45 0 c-33 0 -45 4 -45 15 0 12 18 15 105 15 87 0 105 -3 105 -15z"/>
<path d="M280 519 l0 -50 52 3 c47 3 54 6 62 30 14 41 -14 68 -71 68 l-43 0 0
-51z"/>
<path d="M862 530 c-5 -14 -17 -42 -25 -62 l-16 -38 50 0 c27 0 49 1 49 3 0 2
-11 30 -24 63 -23 56 -25 58 -34 34z"/>
<path d="M2155 591 c-69 -31 -95 -112 -60 -185 22 -45 62 -66 130 -66 53 0 60
3 96 39 34 34 39 44 39 85 0 64 -23 104 -73 127 -53 23 -81 23 -132 0z m106
-69 c25 -21 30 -71 9 -96 -16 -20 -83 -21 -99 -2 -7 8 -11 32 -9 53 2 28 9 41
28 50 34 17 44 16 71 -5z"/>
<path d="M1820 470 l0 -130 40 0 c39 0 40 1 40 35 0 25 5 35 15 35 9 0 23 -16
32 -35 15 -32 20 -35 60 -35 l44 0 -26 43 c-25 44 -25 44 -5 62 30 27 28 98
-5 130 -22 23 -32 25 -110 25 l-85 0 0 -130z m144 48 c13 -21 2 -34 -36 -43
-27 -7 -28 -5 -28 30 0 33 2 36 26 33 15 -2 32 -11 38 -20z"/>
<path d="M2400 510 c0 -134 25 -172 115 -172 90 0 115 38 115 172 l0 90 -35 0
c-19 0 -35 -3 -36 -7 0 -5 -1 -43 -3 -86 -3 -84 -11 -100 -47 -95 -23 3 -24 7
-27 96 l-3 92 -39 0 -40 0 0 -90z"/>
<path d="M2670 565 c0 -34 1 -35 40 -35 l40 0 0 -95 0 -95 35 0 35 0 0 95 0
95 40 0 c39 0 40 1 40 35 l0 35 -115 0 -115 0 0 -35z"/>
<path d="M2940 470 l0 -130 90 0 90 0 0 30 c0 29 -1 30 -49 30 -45 0 -61 10
-61 36 0 2 23 4 50 4 49 0 50 1 50 30 0 29 -2 30 -44 30 -28 0 -46 5 -49 14
-8 21 2 26 55 26 47 0 48 1 48 30 l0 30 -90 0 -90 0 0 -130z"/>
<path d="M3170 470 l0 -130 35 0 c33 0 35 2 35 35 0 27 4 35 18 35 11 0 25
-14 35 -35 15 -31 21 -35 57 -35 22 0 40 3 40 6 0 4 -9 21 -20 40 l-21 32 21
34 c28 47 26 84 -9 119 -28 27 -34 29 -110 29 l-81 0 0 -130z m138 38 c2 -20
-1 -28 -12 -29 -9 -1 -24 -2 -33 -3 -13 -1 -19 8 -21 32 -3 32 -2 33 30 30 28
-2 34 -7 36 -30z"/>
</g>
</svg>
